<?xml version="1.0" encoding="UTF-8"?>
<svg data-bbox="3.4 14.796 65.2 42.404" viewBox="0 0 72 72" xmlns="http://www.w3.org/2000/svg" data-type="ugc">
    <g>
        <path d="M53 15.3c-.7-.3-1.4-.4-2.1-.4-2.2 0-4.1 1.4-4.9 3.5l-.1.3L63.2 27c-3.4-6.8-7.5-10-9.3-11.2-.2-.2-.5-.3-.7-.4l-.2-.1" fill="#e47f00"/>
        <path d="M63.2 27 46 18.5 40 31l9.1 4.5 2.9-6c1.7 3 3.2 6.2 4.2 9.5l12 5.9c-.6-6.2-2.3-12.2-5-17.9" fill="#ea5d0b"/>
        <path d="M30.2 26.4 26 17.7c-1.3-2.6-4.4-3.6-6.9-2.4-.2.1-.4.2-.5.3-1.4.9-2.7 1.9-3.9 3.1l15.5 7.7z" fill="#faba00"/>
        <path d="M58.4 51.6v.4c0 2.8 2.3 5.1 5.1 5.1s5.1-2.3 5.1-5.1c-.1-2.5-.2-4.9-.5-7.1l-12-5.8c1.4 4 2.1 8.2 2.3 12.5" fill="#e01f21"/>
        <path d="m49 35.6-9.2-4.5-3.7 7.8-6-12.5-15.5-7.6c-3.3 3.4-5.8 7.4-7.5 11.9l9.9 4.9c.9-2.1 1.9-4.1 3.1-6.1l4.7 10 18 8.8L49 35.6z" fill="#2c2c83"/>
        <path d="m36.1 38.8-6-12.6-15.4-7.5c-3.3 3.4-5.8 7.4-7.5 11.8l9.9 4.9c.9-2.1 1.9-4.1 3.1-6l4.7 9.9 8.8 4.3 2.4-4.8z" fill="#231956"/>
        <path d="M14.7 18.7c-3.3 3.4-5.8 7.4-7.5 11.9l9.9 4.9c.9-2.1 1.9-4.1 3.1-6.1l3.2-6.4-8.7-4.3z" fill="#5956a1"/>
        <path d="M7.2 30.6c-1.7 4.5-2.8 9.2-3.4 13.9l9.8 4.8c.4-4.8 1.6-9.4 3.5-13.8l-9.9-4.9z" fill="#601964"/>
        <path d="m25 39.3 6.5 13.6c1.2 2.6 4.3 3.6 6.9 2.4 1.3-.6 2.3-1.8 2.7-3.1l1.9-4-18-8.9z" fill="#601964"/>
        <path d="M3.9 44.5c-.3 2.5-.5 5.1-.5 7.6 0 2.8 2.3 5.1 5.1 5.1s5.1-2.3 5.1-5.1v-.5c0-.3 0-1.3.1-2.3l-9.8-4.8z" fill="#a0034e"/>
        <path d="m45.9 18.5-6 12.5 9.2 4.5.2-.4 2.7-5.6 3.2-6.6-9.3-4.4z" fill="#009ee2"/>
    </g>
</svg>